<svg fill="none" height="512" viewBox="0 0 512 512" width="512" xmlns="http://www.w3.org/2000/svg" xmlns:xlink="http://www.w3.org/1999/xlink"><linearGradient id="a" gradientUnits="userSpaceOnUse" x1="176.998" x2="348.807" y1="98.0017" y2="217.518"><stop offset="0" stop-color="#0f62fe"/><stop offset=".5" stop-color="#5a68fe"/><stop offset="1" stop-color="#a56eff"/></linearGradient><linearGradient id="b" gradientUnits="userSpaceOnUse" x1="258.034" x2="257.302" y1="58.266" y2="75.733"><stop offset="0" stop-color="#0f62fe"/><stop offset=".41" stop-color="#0f62fe" stop-opacity=".5"/><stop offset="1" stop-color="#0f62fe" stop-opacity="0"/></linearGradient><clipPath id="c"><path d="m0 0h512v512h-512z"/></clipPath><mask id="d" height="512" maskUnits="userSpaceOnUse" width="512" x="0" y="0"><path d="m512 0h-512v512h512z" fill="#fff"/></mask><g clip-path="url(#c)"><g mask="url(#d)"><path d="m244.179 506.564c0-26.51-21.49-48-48-48s-48.238 21.49-48.238 48h47.654z" fill="#0043ce"/><path d="m244.179 506.564c0-26.51-21.49-48-48-48s-48.238 21.49-48.238 48h47.654z" stroke="#262626" stroke-width="10"/><path d="m244.179 506.564c0-26.51-21.49-48-48-48s-48.238 21.49-48.238 48h47.28z" fill="#0f62fe"/><path d="m244.179 506.564c0-26.51-21.49-48-48-48s-48.238 21.49-48.238 48h47.28z" stroke="#262626" stroke-linecap="round" stroke-linejoin="round" stroke-width="10"/><path d="m364.179 506.564c0-26.51-21.49-48-48-48s-48.238 21.49-48.238 48h47.654z" fill="#0043ce"/><path d="m364.179 506.564c0-26.51-21.49-48-48-48s-48.238 21.49-48.238 48h47.654z" stroke="#262626" stroke-width="10"/><path d="m364.179 506.564c0-26.51-21.49-48-48-48s-48.238 21.49-48.238 48h47.28z" fill="#0f62fe"/><path d="m364.179 506.564c0-26.51-21.49-48-48-48s-48.238 21.49-48.238 48h47.28z" stroke="#262626" stroke-linecap="round" stroke-linejoin="round" stroke-width="10"/><path d="m394.857 272.562h-24c-5.523 0-10-4.477-10.001-10v-40c0-5.523 4.477-10 10-10h24c5.523 0 10 4.477 10 10v40c.001 5.523-4.476 10-9.999 10z" fill="#e0e0e0"/><path d="m394.857 272.562h-24c-5.523 0-10-4.477-10.001-10v-40c0-5.523 4.477-10 10-10h24c5.523 0 10 4.477 10 10v40c.001 5.523-4.476 10-9.999 10z" stroke="#262626" stroke-miterlimit="10" stroke-width="10"/><path d="m140.857 272.564h-24c-5.523 0-10-4.477-10.001-10v-40c0-5.523 4.477-10 10-10h24c5.523 0 10 4.477 10 10v40c.001 5.523-4.476 10-9.999 10z" fill="#e0e0e0"/><path d="m140.857 272.564h-24c-5.523 0-10-4.477-10.001-10v-40c0-5.523 4.477-10 10-10h24c5.523 0 10 4.477 10 10v40c.001 5.523-4.476 10-9.999 10z" stroke="#262626" stroke-miterlimit="10" stroke-width="10"/><path d="m333.991 320.39-155.982.002c-26.515 0-48.009-21.494-48.009-48.009l-.001-59.982c0-26.515 21.494-48.009 48.009-48.009l155.982-.002c26.515 0 48.009 21.494 48.009 48.009l.001 59.982c0 26.515-21.494 48.009-48.009 48.009z" fill="#a8a8a8"/><path d="m333.991 320.39-155.982.002c-26.515 0-48.009-21.494-48.009-48.009l-.001-59.982c0-26.515 21.494-48.009 48.009-48.009l155.982-.002c26.515 0 48.009 21.494 48.009 48.009l.001 59.982c0 26.515-21.494 48.009-48.009 48.009z" stroke="#262626" stroke-miterlimit="10" stroke-width="10"/><path d="m246 426.141c-27.614 0-50-22.386-50-50v-39.75h61.5 58.5v39.75c0 27.614-22.386 50-50 50z" fill="#e0e0e0"/><path d="m246 426.141c-27.614 0-50-22.386-50-50v-39.75h61.5 58.5v39.75c0 27.614-22.386 50-50 50z" stroke="#262626" stroke-miterlimit="10" stroke-width="10"/><path d="m333.991 320.39-155.982.002c-26.515 0-48.009-21.494-48.009-48.009l-.001-59.982c0-26.515 21.494-48.009 48.009-48.009l155.982-.002c26.515 0 48.009 21.494 48.009 48.009l.001 59.982c0 26.515-21.494 48.009-48.009 48.009z" fill="#e0e0e0"/><path d="m333.991 320.39-155.982.002c-26.515 0-48.009-21.494-48.009-48.009l-.001-59.982c0-26.515 21.494-48.009 48.009-48.009l155.982-.002c26.515 0 48.009 21.494 48.009 48.009l.001 59.982c0 26.515-21.494 48.009-48.009 48.009z" stroke="#262626" stroke-miterlimit="10" stroke-width="10"/><path d="m321.512 320.39-131.024.002c-22.273 0-40.328-21.494-40.328-48.009l-.001-59.982c0-26.515 18.055-48.009 40.327-48.009l131.025-.002c22.273 0 40.328 21.494 40.328 48.009l.001 59.982c0 26.515-18.055 48.009-40.328 48.009z" fill="#f4f4f4"/><path d="m333.991 320.39-155.982.002c-26.515 0-48.009-21.494-48.009-48.009l-.001-59.982c0-26.515 21.494-48.009 48.009-48.009l155.982-.002c26.515 0 48.009 21.494 48.009 48.009l.001 59.982c0 26.515-21.494 48.009-48.009 48.009z" stroke="#262626" stroke-miterlimit="10" stroke-width="10"/><path d="m226.336 284.391c11.958 4.663 20.938 6.956 30.094 6.878 8.854-.076 17.872-2.369 29.906-6.878 0 0-13.796 6.983-29.766 6.837s-30.234-6.837-30.234-6.837z" stroke="#262626" stroke-linecap="round" stroke-linejoin="round" stroke-width="10"/><path d="m226.336 284.391c11.958 4.663 20.938 6.956 30.094 6.878 8.854-.076 17.872-2.369 29.906-6.878 0 0-13.796 6.983-29.766 6.837s-30.234-6.837-30.234-6.837zm57.77-43.828c0-15.326 11.976-27.75 26.75-27.751 14.774 0 26.75 12.424 26.75 27.75s-11.975 27.75-26.749 27.75c-14.774.001-26.751-12.423-26.751-27.749z" fill="#262626"/><path d="m309.856 236.562c0-3.863 3.137-7 7-7s7 3.137 7 7c0 3.864-3.136 7-7 7-3.863 0-7-3.136-7-7z" fill="#fff"/><path d="m172.106 240.564c0-15.326 11.976-27.75 26.75-27.75 14.774-.001 26.75 12.423 26.75 27.749s-11.975 27.75-26.749 27.751c-14.774 0-26.751-12.424-26.751-27.75z" fill="#262626"/><path d="m197.856 236.564c0-3.864 3.137-7.001 7-7.001s7 3.137 7 7c0 3.864-3.136 7-7 7-3.863 0-7-3.136-7-6.999z" fill="#fff"/><path d="m394.578 194.391c4.828 0 9.223-2.78 11.293-7.142 3.406-7.178-.66-15.671-8.388-17.517l-12.484-4.416c-.001-67.6042-57.756-122.4087-129.002-122.408-71.245.0006-128.999 54.8062-128.998 122.41l-12.484 4.416c-7.728 1.846-11.794 10.339-8.388 17.517 2.07 4.362 6.465 7.142 11.293 7.142 0 0 46.887 0 138.983-.001s138.175-.001 138.175-.001z" fill="url(#a)"/><path d="m394.578 194.391c4.828 0 9.223-2.78 11.293-7.142 3.406-7.178-.66-15.671-8.388-17.517l-12.484-4.416c-.001-67.6042-57.756-122.4087-129.002-122.408-71.245.0006-128.999 54.8062-128.998 122.41l-12.484 4.416c-7.728 1.846-11.794 10.339-8.388 17.517 2.07 4.362 6.465 7.142 11.293 7.142 0 0 46.887 0 138.983-.001s138.175-.001 138.175-.001z" stroke="#262626" stroke-linejoin="round" stroke-width="8.976"/><path d="m157.999 159.438c77.009-9.75 119.943-10.194 196-.002" stroke="#262626" stroke-linecap="round" stroke-width="10"/><path d="m219.998 121.437v-75.9997c-.001-5.523 4.476-10 9.999-10.0001l52-.0004c5.523-.0001 10 4.4769 10.001 9.9999v76.0003" fill="url(#b)"/><g stroke-miterlimit="10"><path d="m219.998 121.437v-75.9997c-.001-5.523 4.476-10 9.999-10.0001l52-.0004c5.523-.0001 10 4.4769 10.001 9.9999v76.0003" stroke="#262626" stroke-linecap="round" stroke-width="10"/><path d="m158.918 422.391c1.082-39.891 2.764-68.017 2.764-68.017" stroke="#262626" stroke-linecap="round" stroke-width="50"/><path d="m158.918 422.391c1.082-39.891 2.764-68.017 2.764-68.017" stroke="#e0e0e0" stroke-linecap="round" stroke-width="30"/><path d="m355.205 418.391c-.706-38.391-4.236-64.017-4.236-64.017" stroke="#262626" stroke-linecap="round" stroke-width="50"/><path d="m355.205 418.391c-.706-38.391-4.236-64.017-4.236-64.017" stroke="#e0e0e0" stroke-linecap="round" stroke-width="30"/><path d="m153.653 407.228c-17.23 2.115-29.99 16.415-30.707 33.204-.13 3.071 2.563 5.514 5.615 5.14l58.715-7.21c3.051-.374 5.073-3.396 4.204-6.344-4.757-16.118-20.598-26.906-37.827-24.79zm0 0c19.186-2.356 36.648 11.288 39.004 30.474l-34.491 4.235s-23.699-32.353-4.513-34.709zm0 0c-19.186 2.356-32.83 19.818-30.474 39.004l34.491-4.235s15.169-37.125-4.017-34.769z" stroke="#262626" stroke-width="20"/></g><path d="m128.561 445.572c-3.052.374-5.745-2.069-5.615-5.14.717-16.789 13.477-31.089 30.707-33.204 17.229-2.116 33.07 8.672 37.827 24.79.869 2.948-1.153 5.97-4.204 6.344z" fill="#f4f4f4"/><path d="m153.653 407.228c19.186-2.356 36.649 11.288 39.004 30.474l-34.491 4.235s-23.699-32.353-4.513-34.709z" fill="#f4f4f4"/><path d="m153.653 407.228c-19.186 2.356-32.83 19.818-30.474 39.004l34.491-4.235s15.169-37.125-4.017-34.769z" fill="#f4f4f4"/><path d="m356.681 407.261c-17.145-2.716-33.353 7.513-38.669 23.454-.972 2.916.944 6.007 3.98 6.488l58.428 9.254c3.036.481 5.813-1.867 5.79-4.94-.13-16.804-12.384-31.541-29.529-34.256zm0 0c19.092 3.024 32.118 20.952 29.094 40.044l-34.322-5.436s-13.864-37.632 5.228-34.608zm0 0c-19.092-3.024-37.02 10.002-40.044 29.094l34.322 5.436s24.814-31.506 5.722-34.53z" stroke="#262626" stroke-miterlimit="10" stroke-width="20"/><path d="m321.992 437.203c-3.036-.481-4.952-3.572-3.98-6.488 5.316-15.941 21.524-26.17 38.669-23.454 17.146 2.715 29.399 17.452 29.529 34.256.023 3.073-2.754 5.421-5.79 4.94z" fill="#f4f4f4"/><path d="m356.681 407.261c19.092 3.024 32.118 20.952 29.094 40.044l-34.322-5.436s-13.864-37.632 5.228-34.608z" fill="#f4f4f4"/><path d="m356.681 407.261c-19.092-3.024-37.02 10.002-40.044 29.094l34.322 5.436s24.814-31.506 5.722-34.53z" fill="#f4f4f4"/></g><path d="m258.805 359.668c-.401 1.042-3.606 9.937-7.132 19.874-4.488 12.902-6.091 18.432-5.53 19.394 1.042 2.083 4.648 2.804 5.85 1.202.561-.722 3.927-9.857 7.613-20.355 7.052-20.436 7.213-21.237 2.565-21.718-2.004-.24-2.725.16-3.366 1.603zm-28.449 10.899c-12.662 9.216-12.662 9.296-2.645 16.749 11.46 8.574 11.781 8.735 13.063 7.372.561-.641 1.362-2.083 1.603-3.285.48-1.924 0-2.485-5.129-6.331-3.126-2.404-5.69-4.568-5.69-4.889 0-.32 2.564-2.484 5.61-4.728 3.125-2.244 5.93-4.648 6.33-5.449.882-1.603-.961-6.491-2.484-6.491-.561.08-5.369 3.205-10.658 7.052zm38.466-4.488c-1.442 3.446-.801 4.488 6.01 9.376 3.046 2.244 5.61 4.408 5.61 4.728 0 .321-2.564 2.485-5.69 4.889-5.129 3.846-5.609 4.407-5.129 6.331.241 1.202 1.042 2.644 1.603 3.285 1.282 1.363 1.603 1.202 13.063-7.372 10.017-7.453 10.017-7.533-2.645-16.749-5.289-3.847-10.097-6.972-10.658-7.052-.561 0-1.523 1.202-2.164 2.564z" fill="#105fff"/></g></svg>